<?xml version="1.0" encoding="UTF-8" standalone="no"?>
<svg
   xmlns:dc="http://purl.org/dc/elements/1.1/"
   xmlns:cc="http://creativecommons.org/ns#"
   xmlns:rdf="http://www.w3.org/1999/02/22-rdf-syntax-ns#"
   xmlns:svg="http://www.w3.org/2000/svg"
   xmlns="http://www.w3.org/2000/svg"
   xmlns:sodipodi="http://sodipodi.sourceforge.net/DTD/sodipodi-0.dtd"
   xmlns:inkscape="http://www.inkscape.org/namespaces/inkscape"
   width="16.130024in"
   height="6.2916121in"
   viewBox="0 0 1161.3617 452.99609"
   version="1.2"
   id="svg39"
   sodipodi:docname="forallx-coverart-full.svg"
   inkscape:version="0.92.3 (5aff6ba, 2018-11-25)">
  <metadata
     id="metadata43">
    <rdf:RDF>
      <cc:Work
         rdf:about="">
        <dc:format>image/svg+xml</dc:format>
        <dc:type
           rdf:resource="http://purl.org/dc/dcmitype/StillImage" />
        <dc:title></dc:title>
      </cc:Work>
    </rdf:RDF>
  </metadata>
  <sodipodi:namedview
     pagecolor="#ffffff"
     bordercolor="#666666"
     borderopacity="1"
     objecttolerance="10"
     gridtolerance="10"
     guidetolerance="10"
     inkscape:pageopacity="0"
     inkscape:pageshadow="2"
     inkscape:window-width="1853"
     inkscape:window-height="1009"
     id="namedview41"
     showgrid="false"
     units="in"
     fit-margin-top="0"
     fit-margin-left="0"
     fit-margin-right="0"
     fit-margin-bottom="0"
     inkscape:zoom="0.83049181"
     inkscape:cx="803.04003"
     inkscape:cy="301.99739"
     inkscape:window-x="67"
     inkscape:window-y="34"
     inkscape:window-maximized="1"
     inkscape:current-layer="svg39" />
  <defs
     id="defs14">
    <clipPath
       id="clip1">
      <path
         d="M 0,262 H 1139.7617 V 715.67969 H 0 Z m 0,0"
         id="path2"
         inkscape:connector-curvature="0" />
    </clipPath>
    <clipPath
       id="clip2">
      <path
         d="m 925,262 h 214.7617 V 473 H 925 Z m 0,0"
         id="path5"
         inkscape:connector-curvature="0" />
    </clipPath>
    <clipPath
       id="clip3">
      <path
         d="m 953,262 h 186.7617 V 473 H 953 Z m 0,0"
         id="path8"
         inkscape:connector-curvature="0" />
    </clipPath>
    <clipPath
       id="clip4">
      <path
         d="m 944,264 h 195.7617 V 471 H 944 Z m 0,0"
         id="path11"
         inkscape:connector-curvature="0" />
    </clipPath>
  </defs>
  <g
     style="clip-rule:nonzero"
     id="g18"
     clip-path="url(#clip1)"
     transform="matrix(1.0189499,0,0,1,0,-262.68359)">
    <path
       inkscape:connector-curvature="0"
       id="path16"
       d="M 0,715.67969 H 1139.7617 V 262.68359 H 0 Z m 0,0"
       style="fill:#de1e94;fill-opacity:1;fill-rule:nonzero;stroke:none" />
  </g>
  <path
     inkscape:connector-curvature="0"
     id="path20"
     d="m 950.24062,0 h -76 L 834.76797,111.34766 H 666.86562 L 627.39297,0 h -78.94141 l 162.00781,420.64063 h 78.35547 z m -199.1289,348.17969 h -1.76953 L 686.30703,167.31641 h 128.42969 z m 0,0"
     style="fill:#f37323;fill-opacity:1;fill-rule:nonzero;stroke:none" />
  <path
     inkscape:connector-curvature="0"
     id="path22"
     d="m 824.42031,420.64063 h -78.35547 42.75 L 950.24062,0 h 35.59766 z m -73.30859,-72.46094 h -1.76563 L 686.30703,167.31641 H 814.73672 721.9125 l 46.19531,132.54687 z M 702.47109,111.34766 H 666.86562 L 627.39297,0 h 35.60547 z m 0,0"
     style="fill:#de232e;fill-opacity:1;fill-rule:nonzero;stroke:none" />
  <path
     inkscape:connector-curvature="0"
     id="path24"
     d="m 788.81484,420.64063 h -42.75 L 584.05312,0 h 43.33985 l 39.47265,111.34766 H 870.37344 L 909.84609,0 h 40.39453 z m -20.70703,-120.77735 16.83985,48.31641 h 1.76953 l 63.625,-180.86328 H 686.30703 l 63.03516,180.86328 h 1.76953 z m 0,0"
     style="fill:#f0421e;fill-opacity:1;fill-rule:nonzero;stroke:none" />
  <g
     style="clip-rule:nonzero"
     id="g28"
     clip-path="url(#clip2)"
     transform="translate(21.600001,-262.68359)">
    <path
       inkscape:connector-curvature="0"
       id="path26"
       d="m 1027.7109,374.37891 c -15.8906,18.86328 -28.30074,34.2539 -42.69137,49.64062 -8.94141,9.43359 -15.89062,15.39063 -19.85937,15.39063 -3.97266,0 -6.94922,-4.96485 -8.94141,-13.89844 -0.48828,-2.98047 -2.96875,-6.45313 -4.95703,-6.45313 -2.48047,0 -5.46094,0.4961 -10.92188,5.46094 -8.9414,7.44531 -14.39843,20.35156 -14.39843,29.78516 0,8.93359 5.95703,17.87109 17.86718,17.87109 9.44141,0 25.32032,-5.46094 53.6211,-39.21875 13.39841,-15.39062 28.28911,-34.75 36.24221,-42.69141 l 18.8594,47.16016 c 8.4375,20.84766 15.8906,34.75 29.289,34.75 18.8594,0 36.2383,-28.79297 43.1914,-61.0625 0.4883,-4.96484 -6.9531,-6.94922 -10.4336,-2.97656 -7.9375,14.39453 -16.3789,29.28906 -23.3281,29.28906 -5.9609,0 -10.9219,-10.92187 -17.8711,-28.29687 l -18.3672,-47.16016 c 44.6758,-54.10938 58.0781,-68.00781 67.0196,-68.00781 4.957,0 8.4375,5.46093 10.4179,12.41015 1.4883,5.45703 3.4805,8.4375 6.9492,8.4375 7.4532,0 19.8633,-11.41797 19.8633,-28.79297 0,-11.41796 -6.4531,-23.33203 -19.8633,-23.33203 -15.8789,0 -31.7695,14.39844 -56.0898,43.1875 -24.8203,29.28907 -29.2891,35.74219 -33.7578,40.70703 L 1028.2109,288.5 c -6.9492,-18.86328 -13.4101,-25.81641 -21.8515,-25.81641 -12.41018,0 -35.73831,25.81641 -44.6719,53.11719 -0.5,6.45313 3.97266,9.43359 8.93359,6.94922 6.44922,-9.92578 13.89844,-25.31641 22.33985,-25.31641 4.96093,0 7.93746,8.4375 13.89846,23.33203 z m 0,0"
       style="fill:#f37323;fill-opacity:1;fill-rule:nonzero;stroke:none" />
  </g>
  <g
     style="clip-rule:nonzero"
     id="g32"
     clip-path="url(#clip3)"
     transform="translate(21.600001,-262.68359)">
    <path
       inkscape:connector-curvature="0"
       id="path30"
       d="m 1100.5586,472.17578 c -3.3477,0 -6.3281,-0.87109 -9.0391,-2.5 11.1094,-5.71094 21.0782,-20.64844 27.8125,-38.91016 4.5664,-5.67968 9.3672,-14.23828 14,-22.6289 1.2657,-1.45703 3.0782,-2.11328 4.836,-2.11328 3.0312,0 5.9023,1.94922 5.582,5.08984 -6.9492,32.26953 -24.3203,61.0625 -43.1914,61.0625 m -138.00001,0 c -3.3789,0 -6.28906,-0.72266 -8.71093,-1.95703 9.71093,-3.62891 23.53125,-13.33984 43.58203,-37.26172 8.26171,-9.48828 17.08981,-20.48437 24.51171,-29.38281 1.8477,-2.16797 3.707,-4.36328 5.5781,-6.59375 2.3282,-2.67969 4.3985,-4.97266 6.1485,-6.71485 l 5.8711,14.67969 c -7.168,8.64063 -15.5313,19.00781 -23.3711,28.01172 -28.29691,33.75781 -44.17972,39.21875 -53.60941,39.21875 m 2.60157,-32.76562 c -3.76172,0 -6.64063,-4.46094 -8.6211,-12.53907 0.8086,-0.83203 1.66016,-1.61718 2.54297,-2.35156 5.45703,-4.96484 8.4375,-5.46094 10.91797,-5.46094 1.98828,0 4.46875,3.47266 4.96875,6.45313 0.5625,2.51953 1.19922,4.72656 1.92187,6.59375 -5.05078,4.62109 -9.05859,7.30469 -11.73046,7.30469 M 1091.25,437.42578 c -5.9609,0 -10.918,-10.92187 -17.8711,-28.29687 l -18.3711,-47.16016 c 4.711,-5.70703 9.082,-10.96875 13.1328,-15.8125 l 0.1485,0.42187 c 3.0586,-3.39453 6.1211,-7.48828 15.6992,-19.11718 22.3711,-25.89063 31.4297,-33.5 38.043,-33.5 3.0976,0 5.6171,2.1289 7.5585,5.41797 -9.9218,8.03125 -25.8203,26.23437 -55.832,62.58984 l 18.3633,47.16016 c 3.4609,8.65234 6.4297,15.70312 9.2773,20.60156 -3.5664,4.65625 -7.0078,7.69531 -10.1484,7.69531 M 1049.5508,346.57812 1028.2109,288.5 c -4.2226,-11.44922 -8.2617,-18.51172 -12.6601,-22.29297 3.5312,-2.26172 6.8086,-3.52344 9.5586,-3.52344 8.4414,0 14.8906,6.95313 21.8398,25.81641 l 15.5508,42.30469 c -7.4609,9.11718 -10.1992,12.72656 -12.9492,15.77343 m -63.58205,-22.95703 c -3.41016,0 -5.91797,-2.89843 -5.53906,-7.82031 1.82031,-5.57031 4.23828,-11.07422 7.05078,-16.3125 1.77734,-1.29297 3.60156,-2.05469 5.48047,-2.05469 2.84765,0 5.04687,2.78907 7.53906,7.98828 -4,5.23438 -7.71094,12.05469 -11.14063,17.32813 -1.17968,0.58984 -2.32812,0.87109 -3.39062,0.87109 m 172.17965,-8.8125 c -3.1992,0 -5.1406,-2.52734 -6.5898,-7.19531 4.3008,-5.04687 7.6992,-12.50781 7.6992,-21.59766 0,-8.63671 -3.6875,-17.55859 -11.289,-21.39062 3.4414,-1.29297 6.8125,-1.94141 10.1796,-1.94141 13.4024,0 19.8516,11.91407 19.8516,23.33203 0,17.375 -12.4102,28.79297 -19.8516,28.79297"
       style="fill:#de232e;fill-opacity:1;fill-rule:nonzero;stroke:none" />
  </g>
  <g
     style="clip-rule:nonzero"
     id="g36"
     clip-path="url(#clip4)"
     transform="translate(21.600001,-262.68359)">
    <path
       inkscape:connector-curvature="0"
       id="path34"
       d="m 953.84766,470.21875 c -6.10938,-3.11719 -9.15625,-9.51563 -9.15625,-15.91406 0,-8.50391 4.42968,-19.82813 11.84765,-27.4336 1.98047,8.07813 4.85938,12.53907 8.6211,12.53907 2.66796,0 6.67968,-2.6836 11.73046,-7.30469 1.82032,4.74609 4.16016,7.30469 7.00782,7.30469 3.97265,0 10.92187,-5.95704 19.85936,-15.39063 6.293,-6.71875 12.1914,-13.4375 18.1836,-20.44531 -7.4219,8.89844 -16.25,19.89453 -24.51171,29.38281 -20.05078,23.92188 -33.8711,33.63281 -43.58203,37.26172 m 137.67184,-0.54297 c -8.1484,-4.88672 -13.9218,-16.61328 -20.25,-32.25 l -18.8593,-47.16016 c -3.3008,3.29297 -7.7891,8.55469 -12.8711,14.67969 l -5.8711,-14.67969 c -1.75,1.74219 -3.8203,4.03516 -6.1485,6.71485 5.961,-7.07813 12.1289,-14.51953 18.9297,-22.60156 l -20.8515,-53.61329 c -5.9493,-14.89453 -8.9297,-23.33203 -13.8985,-23.33203 -3.9492,0 -7.6914,3.37891 -11.1992,7.98828 -2.49219,-5.19921 -4.69141,-7.98828 -7.53906,-7.98828 -1.88282,0 -3.70313,0.76172 -5.48047,2.05469 7.91015,-14.76562 18.86723,-27.39844 28.07033,-33.28125 4.3984,3.78125 8.4375,10.84375 12.6601,22.29297 l 21.3399,58.07812 c 2.75,-3.04687 5.4883,-6.65625 12.9492,-15.77343 l 5.6406,15.35156 c -4.0508,4.84375 -8.4218,10.10547 -13.1328,15.8125 l 18.3711,47.16016 c 6.9492,17.375 11.9102,28.29687 17.8711,28.29687 3.1406,0 6.5781,-3.03906 10.1484,-7.69531 2.8594,4.9414 5.6016,7.69531 8.5899,7.69531 2.9023,0 6.0625,-2.59375 9.3398,-6.66016 -6.7304,18.26172 -16.6992,33.19922 -27.8086,38.91016 m -7.5312,-142.21484 c 4.4219,-5.36719 10.2226,-12.33985 18.0625,-21.58985 19.168,-22.6875 33.0976,-36.4375 45.918,-41.24609 7.6015,3.83203 11.289,12.75391 11.289,21.39062 0,9.08985 -3.3984,16.55079 -7.6992,21.59766 -0.1289,-0.39844 -0.25,-0.8125 -0.3594,-1.24219 -1.9883,-6.94922 -5.4609,-12.41015 -10.4297,-12.41015 -2.9297,0 -6.3398,1.49609 -11.1797,5.41797 -1.9414,-3.28907 -4.4609,-5.41797 -7.5585,-5.41797 -6.6133,0 -15.6719,7.60937 -38.043,33.5"
       style="fill:#f0421e;fill-opacity:1;fill-rule:nonzero;stroke:none" />
  </g>
</svg>
